<?xml version="1.0" encoding="iso-8859-1"?>
<!-- Generator: Adobe Illustrator 16.0.0, SVG Export Plug-In . SVG Version: 6.00 Build 0)  -->
<!DOCTYPE svg PUBLIC "-//W3C//DTD SVG 1.1//EN" "http://www.w3.org/Graphics/SVG/1.1/DTD/svg11.dtd">
<svg version="1.1" id="Layer_1" xmlns="http://www.w3.org/2000/svg" xmlns:xlink="http://www.w3.org/1999/xlink" x="0px" y="0px"
	 width="270px" height="80px" viewBox="0 0 270 80" style="enable-background:new 0 0 270 80;" xml:space="preserve">
<linearGradient id="SVGID_1_" gradientUnits="userSpaceOnUse" x1="134" y1="33.9253" x2="263" y2="33.9253">
	<stop  offset="0" style="stop-color:#FF79DA;stop-opacity:0.6"/>
	<stop  offset="1" style="stop-color:#9356DC;stop-opacity:0.8"/>
</linearGradient>
<path style="fill:none;stroke:url(#SVGID_1_);stroke-miterlimit:10;" d="M134,49.5h101.631h0.106c-2.685-3-2.685-3.231-3.852-4.228
	c-7.282-6.205-12.092-10.761-12.092-16.751c0-5.545,3.857-9.956,8.967-9.956c1.833,0,3.512,0.466,4.991,1.611
	c1.422,1.098,2.365,2.438,2.924,3.455c0.555-1.017,1.5-2.443,2.919-3.54c1.479-1.146,3.16-1.741,4.991-1.741
	c5.113,0,8.969,4.175,8.969,9.72c0,5.991-4.81,11.001-12.092,17.205c-1.165,0.996-1.165,1.225-3.85,4.225h0.105H263"/>
<linearGradient id="SVGID_2_" gradientUnits="userSpaceOnUse" x1="7" y1="34.2871" x2="134" y2="34.2871">
	<stop  offset="0" style="stop-color:#9356DC;stop-opacity:0.8"/>
	<stop  offset="1" style="stop-color:#FF79DA;stop-opacity:0.6"/>
</linearGradient>
<path style="fill:none;stroke:url(#SVGID_2_);stroke-miterlimit:10;" d="M7,49.5h23.758h0.105c-2.638-3-2.638-3.075-3.787-4.055
	c-7.159-6.101-11.888-10.53-11.888-16.42c0-5.453,3.792-9.764,8.817-9.764c1.802,0,3.451,0.471,4.908,1.597
	c1.396,1.079,2.325,2.401,2.871,3.402c0.547-1.001,1.479-2.398,2.871-3.478c1.456-1.126,3.106-1.709,4.908-1.709
	c5.028,0,8.817,4.105,8.817,9.559c0,5.889-4.729,10.715-11.887,16.815c-1.149,0.98-1.149,1.053-3.787,4.053h0.105H134"/>
</svg>
